<?xml version="1.0" encoding="iso-8859-1"?>
<!-- Generator: Adobe Illustrator 17.0.0, SVG Export Plug-In . SVG Version: 6.00 Build 0)  -->
<!DOCTYPE svg PUBLIC "-//W3C//DTD SVG 1.1//EN" "http://www.w3.org/Graphics/SVG/1.1/DTD/svg11.dtd">
<svg version="1.1" id="Layer_1" xmlns="http://www.w3.org/2000/svg" xmlns:xlink="http://www.w3.org/1999/xlink" x="0px" y="0px"
	 width="329px" height="219px" viewBox="0 0 329 219" style="enable-background:new 0 0 329 219;" xml:space="preserve">
<g>
	<g>
		<rect x="3" y="22" style="fill:#701C7C;" width="324" height="194"/>
		<rect x="18" y="69" width="38" height="5"/>
		<rect x="18" y="83" width="33" height="5"/>
		<rect x="18" y="97" width="36" height="5"/>
		<rect x="18" y="200" width="43" height="1"/>
		<rect x="18" y="37" width="76" height="16"/>
		<g>
			<rect x="131" y="91" width="81" height="2"/>
			<rect x="131" y="100" width="74" height="2"/>
			<rect x="131" y="109" width="81" height="2"/>
			<rect x="131" y="119" width="86" height="2"/>
			<rect x="131" y="128" width="74" height="2"/>
			<rect x="131" y="137" width="48" height="2"/>
			<rect x="131" y="68" width="44" height="8"/>
		</g>
		<rect x="3" y="22" style="opacity:0.15;" width="111" height="193"/>
	</g>
	<path style="fill:none;stroke:#FFFFFF;stroke-width:6;stroke-linecap:round;stroke-linejoin:round;stroke-miterlimit:10;" d="
		M326,210c0,3.314-2.686,6-6,6H9c-3.314,0-6-2.686-6-6V9c0-3.314,2.686-6,6-6h311c3.314,0,6,2.686,6,6V210z"/>
	<line style="fill:none;stroke:#FFFFFF;stroke-width:6;stroke-miterlimit:10;" x1="327" y1="22" x2="3" y2="22"/>
	<circle style="fill:#FFFFFF;" cx="13.332" cy="12.612" r="3.667"/>
	<circle style="fill:#FFFFFF;" cx="24.332" cy="12.612" r="3.667"/>
	<circle style="fill:#FFFFFF;" cx="35.332" cy="12.612" r="3.667"/>
	<path style="fill:#FFFFFF;" d="M127,16.779c0-2.485-2.35-4.779-4.835-4.779h-70C49.68,12,48,14.294,48,16.779c0,0.171,0,0.5,0,0.5
		V21h79v-3.721C127,17.279,127,16.95,127,16.779z"/>
	<path style="fill:none;stroke:#FFFFFF;stroke-width:2;stroke-miterlimit:10;" d="M207,16.779c0-2.485-1.35-3.779-3.835-3.779h-71
		C129.68,13,128,14.294,128,16.779c0,0.171,0,5.221,0,5.221h79C207,22,207,16.95,207,16.779z"/>
	<path style="fill:none;stroke:#FFFFFF;stroke-width:2;stroke-miterlimit:10;" d="M288,16.779c0-2.485-1.35-3.779-3.835-3.779h-71
		C210.68,13,209,14.294,209,16.779c0,0.171,0,5.221,0,5.221h79C288,22,288,16.95,288,16.779z"/>
</g>
</svg>
