<svg xmlns="http://www.w3.org/2000/svg" xmlns:xlink="http://www.w3.org/1999/xlink" width="32" height="32" viewBox="0 0 32 32">
  <path d="M15.999 0C7.164 0 0 7.163 0 16.001c0 7.068 4.584 13.065 10.943 15.181.8.147 1.092-.347 1.092-.771 0-.38-.014-1.386-.022-2.721-4.451.967-5.39-2.145-5.39-2.145-.727-1.848-1.776-2.34-1.776-2.34-1.453-.993.11-.973.11-.973 1.605.113 2.45 1.649 2.45 1.649 1.428 2.445 3.745 1.739 4.657 1.329.145-1.034.559-1.739 1.016-2.139-3.553-.404-7.288-1.776-7.288-7.907 0-1.747.623-3.175 1.647-4.294-.165-.405-.714-2.031.156-4.234 0 0 1.344-.43 4.4 1.64 1.277-.355 2.645-.532 4.006-.539 1.359.007 2.728.184 4.006.539 3.054-2.07 4.395-1.64 4.395-1.64.873 2.203.324 3.829.159 4.234 1.026 1.119 1.645 2.547 1.645 4.294 0 6.146-3.741 7.499-7.305 7.895.574.494 1.086 1.47 1.086 2.963 0 2.139-.02 3.864-.02 4.389 0 .428.288.926 1.1.769C27.42 29.06 32 23.067 32 16.001 32 7.163 24.836 0 15.999 0"/>
</svg>
