<svg xmlns="http://www.w3.org/2000/svg" width="32" height="32" viewBox="0 0 32 32">
  <path fill-rule="evenodd" d="M27.266,27.267 L22.524,27.267 L22.524,19.842 C22.524,18.071 22.49,15.792 20.058,15.792 C17.587,15.792 17.211,17.721 17.211,19.713 L17.211,27.267 L12.47,27.267 L12.47,11.997 L17.02,11.997 L17.02,14.083 L17.085,14.083 C17.718,12.882 19.267,11.617 21.576,11.617 C26.378,11.617 27.266,14.779 27.266,18.891 L27.266,27.267 Z M7.119,9.909 C5.594,9.909 4.366,8.676 4.366,7.156 C4.366,5.639 5.594,4.406 7.119,4.406 C8.637,4.406 9.87,5.639 9.87,7.156 C9.87,8.676 8.637,9.909 7.119,9.909 L7.119,9.909 Z M4.742,27.267 L9.493,27.267 L9.493,11.997 L4.742,11.997 L4.742,27.267 Z M29.63,0 L2.36,0 C1.058,0 0,1.033 0,2.306 L0,29.69 C0,30.965 1.058,31.999 2.36,31.999 L29.63,31.999 C30.934,31.999 32,30.965 32,29.69 L32,2.306 C32,1.033 30.934,0 29.63,0 L29.63,0 Z"/>
</svg>
