<svg xmlns="http://www.w3.org/2000/svg" width="32" height="32" viewBox="0 0 32 32">
  <path fill-rule="evenodd" d="M10.052,29.02 C22.127,29.02 28.735,19.006 28.735,10.337 C28.735,10.056 28.735,9.774 28.722,9.492 C30.002,8.57 31.116,7.405 32,6.086 C30.822,6.611 29.554,6.957 28.222,7.123 C29.58,6.317 30.617,5.023 31.116,3.487 C29.849,4.242 28.44,4.78 26.942,5.074 C25.738,3.794 24.035,3 22.153,3 C18.529,3 15.584,5.945 15.584,9.569 C15.584,10.081 15.648,10.581 15.75,11.067 C10.295,10.798 5.455,8.173 2.215,4.204 C1.652,5.177 1.332,6.304 1.332,7.507 C1.332,9.787 2.497,11.797 4.251,12.975 C3.176,12.937 2.164,12.642 1.281,12.156 L1.281,12.245 C1.281,15.421 3.547,18.084 6.543,18.686 C5.993,18.84 5.417,18.917 4.815,18.917 C4.392,18.917 3.982,18.878 3.585,18.802 C4.418,21.414 6.851,23.309 9.719,23.36 C7.465,25.127 4.635,26.177 1.562,26.177 C1.037,26.177 0.512,26.152 0,26.088 C2.894,27.932 6.351,29.02 10.052,29.02"/>
</svg>
